<?xml version="1.0" standalone="no"?>
<!DOCTYPE svg PUBLIC "-//W3C//DTD SVG 20010904//EN"
 "http://www.w3.org/TR/2001/REC-SVG-20010904/DTD/svg10.dtd">
<svg version="1.0" xmlns="http://www.w3.org/2000/svg"
 width="1024.000000pt" height="1024.000000pt" viewBox="0 0 1024.000000 1024.000000"
 preserveAspectRatio="xMidYMid meet">

<g transform="translate(0.000000,1024.000000) scale(0.100000,-0.100000)"
fill="#000000" stroke="none">
<path d="M0 5120 l0 -5120 5120 0 5120 0 0 5120 0 5120 -5120 0 -5120 0 0
-5120z m5395 2869 c455 -42 933 -223 1329 -502 187 -132 429 -350 542 -488
l57 -70 -24 -23 c-13 -13 -78 -72 -144 -132 -66 -60 -142 -130 -170 -156 l-49
-46 -22 76 c-93 320 -332 555 -703 692 -99 36 -283 77 -386 85 -201 16 -251
26 -425 85 -217 74 -386 110 -540 115 l-115 4 93 -8 c50 -4 95 -11 99 -14 3
-4 -3 -7 -15 -7 -11 0 -27 -7 -35 -15 -8 -8 -17 -11 -21 -8 -3 4 -6 -4 -6 -16
0 -12 4 -19 10 -16 6 3 7 -1 4 -9 -3 -9 -10 -16 -14 -16 -4 0 -13 -13 -20 -30
-7 -16 -19 -30 -26 -30 -24 0 -16 -30 9 -30 16 -1 12 -5 -16 -14 -21 -8 -47
-11 -59 -8 -13 3 -19 1 -15 -5 6 -10 -35 -23 -76 -24 -9 0 -15 -4 -12 -9 3 -6
0 -7 -8 -4 -8 3 -18 1 -21 -4 -3 -6 -16 -8 -29 -5 -17 4 -19 2 -7 -6 11 -8 4
-13 -33 -23 -26 -6 -47 -16 -47 -21 0 -4 -5 -5 -10 -2 -6 4 -8 10 -5 15 3 4
-7 5 -22 1 -17 -4 -29 -15 -31 -27 -3 -18 -2 -18 8 -1 6 9 18 17 26 17 24 0 7
-18 -38 -41 -22 -11 -37 -16 -33 -10 7 12 8 12 -60 17 -27 2 -51 8 -53 14 -6
18 -63 11 -116 -16 -240 -120 -519 -396 -699 -690 -64 -106 -130 -234 -147
-287 -7 -22 -16 -34 -22 -31 -7 4 -8 2 -4 -5 4 -6 -4 -39 -18 -74 -13 -34 -39
-118 -57 -187 -18 -69 -34 -127 -36 -130 -6 -7 -23 23 -22 40 0 10 2 11 6 2 2
-6 9 -10 13 -7 5 3 7 12 4 19 -3 8 -1 17 5 21 6 3 11 13 11 21 0 11 -9 8 -37
-10 -21 -13 -37 -28 -36 -34 1 -5 -9 -7 -23 -4 -13 2 -31 -2 -40 -9 -9 -7 -26
-18 -38 -24 -11 -6 -27 -23 -34 -38 -14 -29 -28 -35 -35 -14 -3 8 -14 3 -34
-15 -16 -16 -35 -28 -42 -28 -9 0 -11 -8 -8 -21 4 -16 3 -18 -8 -9 -11 9 -12
7 -9 -7 3 -10 1 -29 -5 -43 -31 -78 4 179 50 368 63 258 183 534 292 675 47
61 25 53 -37 -13 -247 -268 -416 -584 -511 -960 -81 -322 -94 -699 -36 -1040
86 -497 358 -1013 707 -1339 211 -197 436 -320 681 -371 492 -103 1168 75
1706 451 94 66 257 196 257 205 0 2 -35 -19 -77 -47 -175 -115 -430 -208 -653
-239 -109 -16 -388 -13 -503 5 -254 38 -472 123 -657 255 -75 54 -98 75 -88
82 10 8 9 9 -3 5 -17 -6 -64 35 -53 45 3 3 0 9 -7 14 -8 5 -10 3 -4 -6 5 -8 3
-11 -6 -8 -8 3 -14 13 -14 23 0 10 -6 20 -13 23 -6 2 -12 9 -12 15 0 14 -41
43 -54 39 -5 -2 -4 3 3 11 6 8 8 17 4 19 -4 1 -19 24 -32 50 -14 28 -28 45
-35 41 -6 -3 -7 -2 -3 2 10 11 37 15 37 6 0 -4 6 -8 13 -9 6 0 50 -14 97 -31
47 -17 118 -37 158 -46 82 -17 240 -20 290 -6 29 9 41 5 110 -36 218 -129 410
-183 653 -183 399 0 737 180 948 505 43 66 120 234 121 263 0 11 -90 12 -492
7 -271 -4 -544 -3 -605 0 l-113 7 0 550 0 549 923 -3 922 -3 96 -27 c53 -14
138 -47 190 -73 655 -325 807 -1239 326 -1966 -62 -93 -157 -209 -251 -307
-100 -104 -359 -322 -382 -322 -4 0 -17 -8 -28 -18 -28 -25 -165 -108 -202
-123 -56 -23 -65 -17 -26 17 20 18 44 34 52 34 11 1 11 3 2 7 -8 3 8 27 45 67
184 197 360 450 498 721 86 169 127 272 168 425 29 109 31 125 31 305 0 175
-2 198 -27 290 -35 130 -99 262 -174 355 -98 123 -213 198 -371 243 -75 21
-96 21 -749 25 l-673 3 0 -200 0 -201 543 -1 c298 -1 547 -1 553 0 23 3 84
-252 84 -353 0 -155 -138 -429 -351 -697 -123 -154 -218 -246 -379 -365 -347
-258 -697 -426 -1130 -543 -378 -103 -846 -99 -1165 8 -305 102 -629 423 -895
884 -367 639 -457 1465 -240 2209 131 447 358 826 705 1174 623 625 1438 917
2330 833z m-348 -525 c-3 -3 -12 -4 -19 -1 -8 3 -5 6 6 6 11 1 17 -2 13 -5z
m-670 -211 c2 -6 -5 -17 -16 -23 -12 -6 -21 -7 -21 -3 0 4 -4 2 -9 -6 -6 -9
-8 -5 -8 16 1 24 6 29 26 28 13 0 26 -5 28 -12z m1443 -273 c8 -5 11 -10 5
-10 -5 0 -17 5 -25 10 -8 5 -10 10 -5 10 6 0 17 -5 25 -10z m80 -42 c0 -5 -13
1 -30 14 -16 12 -30 23 -30 25 0 2 14 -4 30 -14 17 -9 30 -21 30 -25z m-29 -5
c13 -15 12 -15 -8 -4 -24 12 -29 21 -14 21 5 0 15 -7 22 -17z m138 -71 c46
-43 50 -53 20 -49 -12 1 -24 -5 -26 -13 -3 -10 -2 -11 4 -4 19 27 113 -12 96
-39 -3 -5 -1 -7 5 -3 16 10 73 -68 66 -91 -4 -13 -3 -14 3 -5 19 26 140 -183
178 -308 7 -23 7 -23 -10 -6 -10 9 -17 29 -17 43 0 15 -4 20 -8 13 -4 -6 -10
-11 -14 -11 -26 4 -23 -5 13 -44 23 -26 65 -81 92 -123 l50 -77 -73 -68 c-153
-142 -179 -162 -189 -145 -24 42 -112 152 -184 227 -238 250 -531 374 -890
374 -165 1 -231 -9 -379 -54 -211 -65 -368 -160 -532 -323 -207 -207 -324
-420 -385 -699 -41 -188 -43 -463 -4 -652 41 -197 151 -426 277 -578 l40 -48
-58 22 c-172 62 -339 170 -452 294 -113 123 -206 302 -224 429 -15 102 -3 343
21 448 126 547 407 972 821 1240 303 197 665 289 1016 259 171 -15 249 -31
394 -82 63 -23 129 -42 145 -43 18 -1 29 -7 27 -14 -1 -7 18 -21 43 -32 25
-11 67 -34 93 -52 26 -17 42 -25 36 -17 -6 7 -10 24 -8 36 5 28 -10 37 -36 23
-22 -12 -50 1 -50 23 0 6 6 3 13 -7 11 -15 17 -17 35 -7 28 15 28 25 2 18 -11
-3 -23 -1 -26 4 -3 5 0 9 6 9 8 0 8 6 0 21 -9 16 -8 24 7 37 23 21 19 48 -8
55 -25 7 -25 24 1 32 19 6 18 8 -8 31 l-27 25 31 -15 c17 -8 50 -33 73 -54z
m-74 28 c3 -6 -4 -10 -17 -10 -18 0 -20 2 -8 10 19 12 18 12 25 0z m55 -210
c0 -5 -6 -10 -12 -10 -9 0 -8 -4 2 -10 8 -5 10 -10 4 -10 -6 0 -17 6 -23 14
-9 11 -9 15 1 19 21 9 28 8 28 -3z m324 -306 c3 -8 2 -12 -4 -9 -6 3 -10 10
-10 16 0 14 7 11 14 -7z m-3167 -491 c-3 -10 -5 -4 -5 12 0 17 2 24 5 18 2 -7
2 -21 0 -30z m30 -75 c-3 -8 -6 -5 -6 6 -1 11 2 17 5 13 3 -3 4 -12 1 -19z
m-340 -225 c-2 -21 -4 -6 -4 32 0 39 2 55 4 38 2 -18 2 -50 0 -70z m0 -235
c-3 -7 -5 -2 -5 12 0 14 2 19 5 13 2 -7 2 -19 0 -25z"/>
<path d="M4653 7623 c9 -2 23 -2 30 0 6 3 -1 5 -18 5 -16 0 -22 -2 -12 -5z"/>
<path d="M4735 7420 c22 -4 47 -4 55 1 10 5 -5 8 -40 8 -55 -1 -55 -1 -15 -9z"/>
<path d="M4651 7411 c-11 -7 -9 -10 8 -16 13 -4 25 -4 28 -1 4 3 -2 6 -13 6
-16 0 -17 2 -4 10 8 5 11 10 5 10 -5 0 -16 -4 -24 -9z"/>
<path d="M4425 7340 c-4 -7 3 -8 22 -4 38 9 42 14 10 14 -14 0 -29 -5 -32 -10z"/>
<path d="M4520 7340 c-18 -12 -2 -12 25 0 13 6 15 9 5 9 -8 0 -22 -4 -30 -9z"/>
<path d="M4400 7306 c0 -14 4 -27 8 -30 5 -3 6 8 4 25 -5 35 -12 38 -12 5z"/>
<path d="M3242 6155 c0 -16 2 -22 5 -12 2 9 2 23 0 30 -3 6 -5 -1 -5 -18z"/>
<path d="M3120 5989 c0 -5 5 -7 10 -4 6 3 10 8 10 11 0 2 -4 4 -10 4 -5 0 -10
-5 -10 -11z"/>
<path d="M6556 2772 c-3 -5 1 -9 9 -9 8 0 12 4 9 9 -3 4 -7 8 -9 8 -2 0 -6 -4
-9 -8z"/>
<path d="M4355 7250 c3 -5 8 -10 11 -10 2 0 4 5 4 10 0 6 -5 10 -11 10 -5 0
-7 -4 -4 -10z"/>
<path d="M6025 6621 c-3 -5 -2 -12 3 -15 5 -3 9 1 9 9 0 17 -3 19 -12 6z"/>
<path d="M6100 6556 c0 -2 8 -10 18 -17 15 -13 16 -12 3 4 -13 16 -21 21 -21
13z"/>
<path d="M6228 6454 c11 -21 42 -51 42 -41 0 3 -12 19 -26 34 -19 20 -24 22
-16 7z"/>
</g>
</svg>
