<?xml version="1.0" standalone="no"?>
<!DOCTYPE svg PUBLIC "-//W3C//DTD SVG 20010904//EN"
 "http://www.w3.org/TR/2001/REC-SVG-20010904/DTD/svg10.dtd">
<svg version="1.0" xmlns="http://www.w3.org/2000/svg"
 width="236.000000pt" height="236.000000pt" viewBox="0 0 236.000000 236.000000"
 preserveAspectRatio="xMidYMid meet">

<g transform="translate(0.000000,236.000000) scale(0.100000,-0.100000)"
fill="#000000" stroke="none">
<path d="M142 2330 c0 -19 2 -27 5 -17 2 9 2 25 0 35 -3 9 -5 1 -5 -18z"/>
<path d="M172 2330 c0 -19 2 -27 5 -17 2 9 2 25 0 35 -3 9 -5 1 -5 -18z"/>
<path d="M207 2353 c-3 -5 -2 -75 3 -158 l7 -150 1 158 c2 147 0 169 -11 150z"/>
<path d="M243 2305 c0 -33 2 -45 4 -27 2 18 2 45 0 60 -2 15 -4 0 -4 -33z"/>
<path d="M321 2327 c0 -25 -8 -45 -21 -55 -10 -10 -22 -29 -25 -43 -8 -31 12
-43 52 -33 21 6 24 11 18 33 -4 14 -10 51 -14 81 -7 48 -8 50 -10 17z"/>
<path d="M423 2300 c0 -36 2 -50 4 -32 2 17 2 47 0 65 -2 17 -4 3 -4 -33z"/>
<path d="M453 2320 c0 -25 2 -35 4 -22 2 12 2 32 0 45 -2 12 -4 2 -4 -23z"/>
<path d="M532 2248 l2 -113 3 105 c2 60 7 99 12 92 6 -10 10 -9 14 7 4 16 0
21 -14 21 -18 0 -19 -8 -17 -112z"/>
<path d="M601 2341 c-1 -17 -5 -21 -17 -17 -8 3 -12 2 -9 -4 3 -6 -1 -13 -9
-16 -12 -5 -16 -19 -14 -58 l1 -51 4 45 c3 33 11 50 30 65 17 14 24 28 20 40
-4 17 -5 16 -6 -4z"/>
<path d="M680 2316 c0 -36 4 -45 21 -49 15 -4 19 -3 12 4 -6 6 -8 28 -6 50 5
32 3 39 -11 39 -12 0 -16 -10 -16 -44z"/>
<path d="M774 2275 c0 -49 1 -71 3 -48 2 23 2 64 0 90 -2 26 -3 8 -3 -42z"/>
<path d="M803 2305 c0 -33 2 -45 4 -27 2 18 2 45 0 60 -2 15 -4 0 -4 -33z"/>
<path d="M1193 2310 c0 -30 2 -43 4 -27 2 15 2 39 0 55 -2 15 -4 2 -4 -28z"/>
<path d="M1272 2340 c0 -14 2 -19 5 -12 2 6 2 18 0 25 -3 6 -5 1 -5 -13z"/>
<path d="M1324 2270 c0 -52 1 -74 3 -47 2 26 2 68 0 95 -2 26 -3 4 -3 -48z"/>
<path d="M1353 2280 c0 -47 2 -66 4 -42 2 23 2 61 0 85 -2 23 -4 4 -4 -43z"/>
<path d="M1458 2295 c-1 -36 0 -65 5 -65 4 0 7 29 7 65 0 36 -2 65 -4 65 -2 0
-6 -29 -8 -65z"/>
<path d="M1511 2344 c0 -11 3 -14 6 -6 3 7 2 16 -1 19 -3 4 -6 -2 -5 -13z"/>
<path d="M1570 2268 c0 -50 2 -89 4 -87 3 3 8 44 12 92 4 61 3 87 -5 87 -7 0
-11 -31 -11 -92z"/>
<path d="M1663 2320 c0 -25 2 -35 4 -22 2 12 2 32 0 45 -2 12 -4 2 -4 -23z"/>
<path d="M1691 2344 c0 -11 3 -14 6 -6 3 7 2 16 -1 19 -3 4 -6 -2 -5 -13z"/>
<path d="M1754 2275 c0 -49 1 -71 3 -48 2 23 2 64 0 90 -2 26 -3 8 -3 -42z"/>
<path d="M1786 2268 c4 -51 8 -95 10 -97 2 -2 4 39 4 92 0 60 -4 97 -10 97 -7
0 -8 -31 -4 -92z"/>
<path d="M1824 2270 c0 -52 1 -74 3 -47 2 26 2 68 0 95 -2 26 -3 4 -3 -48z"/>
<path d="M1853 2320 c0 -25 2 -35 4 -22 2 12 2 32 0 45 -2 12 -4 2 -4 -23z"/>
<path d="M1890 2304 c0 -36 -4 -53 -10 -49 -18 11 -40 -15 -40 -46 0 -25 3
-28 29 -26 l29 2 1 88 c0 48 -1 87 -4 87 -3 0 -5 -25 -5 -56z m-10 -89 c0 -9
-6 -12 -15 -9 -8 4 -12 10 -9 15 8 14 24 10 24 -6z"/>
<path d="M1924 2270 c0 -52 1 -74 3 -47 2 26 2 68 0 95 -2 26 -3 4 -3 -48z"/>
<path d="M1953 2300 c0 -36 2 -50 4 -32 2 17 2 47 0 65 -2 17 -4 3 -4 -33z"/>
<path d="M2003 2315 c0 -27 2 -38 4 -22 2 15 2 37 0 50 -2 12 -4 0 -4 -28z"/>
<path d="M2033 2300 c6 -84 17 -88 17 -7 0 42 -4 67 -11 67 -7 0 -9 -20 -6
-60z"/>
<path d="M2073 2315 c0 -27 2 -38 4 -22 2 15 2 37 0 50 -2 12 -4 0 -4 -28z"/>
<path d="M2113 2315 c0 -27 2 -38 4 -22 2 15 2 37 0 50 -2 12 -4 0 -4 -28z"/>
<path d="M2143 2320 c0 -25 2 -35 4 -22 2 12 2 32 0 45 -2 12 -4 2 -4 -23z"/>
<path d="M2163 2285 c0 -44 2 -61 4 -37 2 23 2 59 0 80 -2 20 -4 1 -4 -43z"/>
<path d="M2193 2320 c0 -25 2 -35 4 -22 2 12 2 32 0 45 -2 12 -4 2 -4 -23z"/>
<path d="M2213 2320 c0 -25 2 -35 4 -22 2 12 2 32 0 45 -2 12 -4 2 -4 -23z"/>
<path d="M1093 2315 c0 -22 2 -30 4 -17 2 12 2 30 0 40 -3 9 -5 -1 -4 -23z"/>
<path d="M502 2300 c0 -14 2 -19 5 -12 2 6 2 18 0 25 -3 6 -5 1 -5 -13z"/>
<path d="M606 2296 c-16 -13 -27 -28 -25 -33 2 -5 17 6 32 24 34 39 32 41 -7
9z"/>
<path d="M1491 2304 c0 -11 3 -14 6 -6 3 7 2 16 -1 19 -3 4 -6 -2 -5 -13z"/>
<path d="M1122 2290 c0 -14 2 -19 5 -12 2 6 2 18 0 25 -3 6 -5 1 -5 -13z"/>
<path d="M172 2260 c0 -19 2 -27 5 -17 2 9 2 25 0 35 -3 9 -5 1 -5 -18z"/>
<path d="M127 2269 c9 -9 10 -16 1 -26 -8 -11 -7 -12 6 -7 21 8 21 30 -1 39
-14 5 -15 4 -6 -6z"/>
<path d="M450 2265 c0 -5 5 -17 10 -25 5 -8 10 -10 10 -5 0 6 -5 17 -10 25 -5
8 -10 11 -10 5z"/>
<path d="M1385 2260 c-3 -5 -1 -10 4 -10 6 0 11 5 11 10 0 6 -2 10 -4 10 -3 0
-8 -4 -11 -10z"/>
<path d="M2142 2250 c0 -14 2 -19 5 -12 2 6 2 18 0 25 -3 6 -5 1 -5 -13z"/>
<path d="M86 2237 c3 -10 9 -15 12 -12 3 3 0 11 -7 18 -10 9 -11 8 -5 -6z"/>
<path d="M646 2233 c-6 -14 -5 -15 5 -6 7 7 10 15 7 18 -3 3 -9 -2 -12 -12z"/>
<path d="M242 2210 c0 -19 2 -27 5 -17 2 9 2 25 0 35 -3 9 -5 1 -5 -18z"/>
<path d="M2101 2207 c-13 -21 -12 -21 5 -5 10 10 16 20 13 22 -3 3 -11 -5 -18
-17z"/>
<path d="M2192 2210 c0 -14 2 -19 5 -12 2 6 2 18 0 25 -3 6 -5 1 -5 -13z"/>
<path d="M173 2165 c0 -27 2 -38 4 -22 2 15 2 37 0 50 -2 12 -4 0 -4 -28z"/>
<path d="M1404 2194 c-18 -14 -18 -15 4 -4 12 6 22 13 22 15 0 8 -5 6 -26 -11z"/>
<path d="M2043 2165 c0 -22 2 -30 4 -17 2 12 2 30 0 40 -3 9 -5 -1 -4 -23z"/>
<path d="M1097 2178 c-9 -7 -19 -26 -23 -43 -5 -30 -5 -30 40 -30 48 0 61 16
34 43 -7 7 -8 12 -4 12 5 0 3 7 -4 15 -15 18 -21 19 -43 3z m30 -14 c-3 -3
-12 -4 -19 -1 -8 3 -5 6 6 6 11 1 17 -2 13 -5z m8 -34 c4 -6 -7 -10 -27 -10
-25 0 -29 3 -18 10 19 13 37 13 45 0z"/>
<path d="M765 2169 c-4 -6 -5 -12 -2 -15 2 -3 7 2 10 11 7 17 1 20 -8 4z"/>
<path d="M2092 2150 c0 -14 2 -19 5 -12 2 6 2 18 0 25 -3 6 -5 1 -5 -13z"/>
<path d="M40 2151 c0 -5 7 -12 16 -15 14 -5 15 -4 4 9 -14 17 -20 19 -20 6z"/>
<path d="M302 2148 c6 -18 28 -21 28 -4 0 9 -7 16 -16 16 -9 0 -14 -5 -12 -12z"/>
<path d="M1699 2133 c-5 -14 -7 -34 -4 -42 5 -13 10 -12 25 9 11 14 20 33 20
43 0 27 -29 20 -41 -10z"/>
<path d="M527 2092 c-10 -10 -17 -28 -17 -40 0 -18 6 -22 35 -22 30 0 35 3 35
23 0 13 -8 31 -18 41 -18 15 -20 15 -35 -2z"/>
<path d="M1323 2044 c-17 -17 -16 -39 0 -53 16 -13 37 4 37 30 0 25 -23 40
-37 23z m27 -23 c0 -12 -20 -25 -27 -18 -7 7 6 27 18 27 5 0 9 -4 9 -9z"/>
<path d="M706 2034 c-15 -39 -6 -64 36 -94 56 -41 69 -38 24 6 -26 26 -34 40
-27 47 7 7 16 5 30 -7 16 -15 19 -15 17 -2 -2 15 -54 66 -67 66 -4 0 -10 -7
-13 -16z"/>
<path d="M1650 2030 c-12 -7 -12 -12 -2 -22 9 -9 15 -9 24 0 8 8 9 15 2 22 -5
5 -15 6 -24 0z"/>
<path d="M1910 2030 c0 -5 5 -10 10 -10 6 0 10 5 10 10 0 6 -4 10 -10 10 -5 0
-10 -4 -10 -10z"/>
<path d="M129 1993 c-13 -16 -12 -17 4 -4 9 7 17 15 17 17 0 8 -8 3 -21 -13z"/>
<path d="M635 2001 c-8 -15 3 -31 21 -31 9 0 14 7 12 17 -4 20 -24 28 -33 14z"/>
<path d="M202 1987 c-19 -22 -3 -55 28 -59 24 -4 29 0 33 21 8 39 -38 67 -61
38z"/>
<path d="M534 1986 c-16 -42 0 -60 89 -105 94 -46 115 -45 103 2 -4 18 -27 37
-75 65 -88 51 -109 58 -117 38z m73 -42 c7 -1 25 -11 40 -21 15 -11 36 -23 46
-26 15 -6 25 -27 11 -27 -8 0 -48 22 -54 30 -3 3 -22 14 -42 23 -21 10 -38 22
-38 28 0 6 6 7 13 2 6 -4 17 -8 24 -9z"/>
<path d="M1459 1958 c-6 -23 -17 -51 -25 -63 -13 -20 -12 -24 8 -41 18 -15 20
-16 9 -2 -11 15 -11 23 3 52 9 19 16 39 16 44 0 6 7 17 15 25 13 13 13 16 0
21 -10 4 -18 -7 -26 -36z"/>
<path d="M1686 1977 c6 -18 -44 -60 -63 -53 -7 3 -13 1 -13 -4 0 -15 25 -12
59 8 30 17 41 45 21 57 -5 3 -7 0 -4 -8z"/>
<path d="M1518 1967 c8 -9 23 -19 34 -23 17 -5 19 -11 13 -42 -11 -60 -21 -71
-57 -65 -23 3 -30 1 -23 -6 6 -6 21 -12 35 -13 29 -4 49 30 53 88 2 33 -2 40
-33 58 -28 16 -32 17 -22 3z"/>
<path d="M1646 1964 c-11 -8 -16 -14 -10 -14 13 0 39 18 34 24 -3 2 -14 -2
-24 -10z"/>
<path d="M1117 1945 c-82 -33 -140 -70 -177 -112 -45 -50 -105 -183 -135 -298
-36 -134 -39 -140 -66 -140 -18 0 -23 -5 -23 -25 0 -19 5 -26 24 -28 23 -2 24
-1 8 11 -23 19 -23 27 2 27 14 0 20 -7 20 -22 0 -45 43 -100 102 -133 l58 -32
-25 -23 c-14 -13 -47 -55 -74 -94 -90 -132 -108 -187 -75 -234 15 -22 14 -22
-22 -22 -36 0 -36 0 -30 35 4 22 3 35 -4 35 -5 0 -9 -5 -7 -11 1 -7 -17 -11
-46 -12 -58 -2 -62 10 -4 16 40 3 39 4 -11 5 l-53 2 7 -35 6 -35 -76 0 c-85 0
-84 -2 -69 84 l6 39 95 -6 c57 -3 104 -2 115 4 19 11 20 22 1 222 -6 61 -5 67
12 67 11 0 29 3 42 6 17 5 22 2 22 -12 1 -18 1 -18 11 -1 16 28 0 40 -47 34
l-43 -4 -8 51 -8 51 -53 3 c-29 2 -50 7 -47 12 3 5 13 7 23 4 14 -5 14 -4 3 4
-18 13 -41 5 -41 -14 0 -8 -4 -14 -8 -14 -28 0 -181 -24 -201 -31 -21 -8 -23
-14 -17 -49 6 -39 6 -39 -31 -45 -107 -16 -108 -16 -108 -60 l0 -40 76 3 77 2
8 -87 c8 -81 11 -88 32 -91 17 -3 22 -10 22 -35 0 -68 -8 -77 -62 -77 -27 0
-58 5 -69 10 -11 6 -19 7 -19 2 0 -13 37 -22 94 -22 56 0 55 -11 -1 -16 -21
-2 -42 -10 -48 -17 -5 -7 -35 -20 -65 -28 -48 -14 -55 -19 -58 -44 -2 -15 2
-32 10 -36 7 -5 50 -9 96 -9 l82 0 2 -32 c0 -18 2 -62 2 -98 l1 -65 -52 -3
-53 -3 0 -152 c0 -155 -5 -201 -21 -191 -5 3 -9 1 -9 -4 0 -16 175 -45 225
-38 69 11 558 8 586 -3 62 -23 408 -3 364 21 -28 16 -7 25 48 20 59 -5 111 12
72 23 -23 7 -45 47 -45 82 0 17 -7 24 -27 29 -16 3 -45 10 -67 16 l-38 9 21
20 c11 11 24 32 27 47 13 57 47 112 69 112 41 0 63 27 70 85 4 30 13 60 21 66
8 6 14 22 14 34 0 21 5 23 55 27 30 1 111 2 180 0 l125 -4 0 -135 c0 -126 -1
-135 -20 -140 -11 -3 -20 -8 -20 -12 0 -12 -36 -7 -49 6 -6 7 -9 13 -5 13 3 0
2 6 -4 13 -7 8 -7 18 -2 27 8 12 10 11 10 -5 0 -29 14 -47 31 -40 23 9 21 45
-2 45 -11 0 -19 7 -19 18 0 13 2 14 9 4 4 -8 10 -13 12 -12 2 1 12 -2 22 -6
12 -4 16 -13 12 -25 -4 -11 -2 -19 4 -19 21 0 11 40 -17 69 -33 35 -80 50 -92
30 -7 -10 -12 -10 -26 2 -10 8 -15 9 -11 2 8 -12 -25 -53 -42 -53 -18 0 -20
-32 -3 -58 9 -14 11 -23 5 -19 -7 5 -13 4 -13 -2 0 -6 -5 -11 -11 -11 -6 0 -8
8 -4 19 5 16 2 18 -17 14 -22 -6 -23 -6 -5 14 12 14 15 23 8 28 -17 10 -13 28
5 21 12 -4 15 -2 10 9 -3 8 -1 15 4 15 6 0 10 -4 10 -10 0 -5 9 -1 21 11 48
48 -10 26 -76 -28 -25 -21 -34 -33 -23 -33 9 0 18 5 20 12 3 9 6 9 12 0 4 -7
2 -12 -3 -12 -6 0 -11 -9 -11 -20 0 -11 7 -20 15 -20 9 0 15 -9 15 -25 0 -21
-5 -25 -30 -25 l-30 0 -1 -62 c0 -35 -4 -87 -8 -115 -6 -44 -5 -54 8 -58 29
-9 476 -6 516 3 32 8 35 10 13 11 -25 1 -26 3 -21 39 3 20 12 50 19 66 19 39
18 63 -3 75 -17 10 -16 11 2 9 11 -1 28 0 38 0 16 2 16 4 1 27 -8 13 -13 29
-9 35 3 5 -1 13 -9 16 -9 3 -16 14 -16 23 0 14 -2 14 -10 1 -8 -12 -10 -9 -10
14 0 20 -4 27 -14 23 -8 -3 -30 -9 -48 -12 l-33 -6 0 125 0 126 81 0 c90 0
118 12 112 50 -2 20 -13 26 -58 38 -30 7 -63 22 -73 33 -19 21 -39 22 -154 10
-40 -4 -73 -3 -73 1 0 4 -15 8 -32 8 -18 0 -42 7 -52 15 -11 8 -38 15 -61 15
-23 0 -50 -7 -61 -15 -17 -13 -54 -21 -54 -12 0 2 7 18 16 36 12 25 14 38 5
63 -17 47 -108 188 -154 235 l-40 41 49 25 c79 40 114 90 114 160 0 50 -73
284 -113 362 -45 90 -94 138 -182 180 -96 45 -105 46 -168 20z m143 -26 c80
-37 133 -77 124 -91 -4 -6 -3 -8 3 -5 15 9 38 -20 67 -87 29 -65 29 -66 18
-66 -5 0 -13 12 -20 28 -9 21 -11 22 -8 5 2 -13 -1 -21 -7 -20 -21 4 -17 -30
8 -67 14 -21 24 -40 22 -42 -5 -6 -51 55 -60 79 -4 10 -12 15 -17 12 -6 -4 -9
-3 -8 2 5 13 -24 46 -72 83 -25 19 -38 26 -30 16 14 -18 14 -19 -7 -8 -12 7
-25 17 -29 24 -5 7 -3 8 6 3 8 -5 11 -4 6 3 -4 6 -14 8 -23 5 -10 -4 -14 -2
-10 4 4 6 0 14 -9 17 -8 3 -13 2 -10 -3 3 -4 -7 -9 -22 -9 -50 -2 -71 -6 -66
-13 2 -4 -8 -15 -23 -25 -15 -9 -48 -36 -74 -58 -25 -23 -16 -12 20 23 69 68
66 72 -8 12 -25 -20 -71 -71 -103 -114 -32 -43 -58 -75 -58 -70 0 5 6 18 14
28 11 15 12 25 3 40 -9 17 -8 18 5 8 12 -11 14 -8 10 20 -3 17 -10 35 -16 39
-7 5 -7 8 3 8 8 0 11 6 7 16 -4 10 -2 13 6 8 8 -5 9 -2 5 10 -15 39 64 126
157 173 100 51 113 52 196 12z m74 -205 c3 -8 2 -12 -4 -9 -6 3 -10 10 -10 16
0 14 7 11 14 -7z m22 -85 c20 -41 18 -45 -22 -41 -19 2 -55 -3 -81 -13 -38
-15 -43 -19 -29 -27 16 -9 16 -11 -1 -24 -23 -18 -64 -18 -98 0 l-28 15 44 11
c24 6 56 16 71 22 30 11 98 81 98 99 0 17 29 -10 46 -42z m-181 -44 c-16 -14
-39 -25 -50 -24 -13 0 -5 8 25 24 57 31 63 30 25 0z m-255 -5 c-6 -11 -13 -20
-16 -20 -2 0 0 9 6 20 6 11 13 20 16 20 2 0 0 -9 -6 -20z m80 -5 l-25 -14 30
-1 c17 -1 39 -5 50 -10 14 -6 5 -8 -30 -6 -68 5 -76 39 -10 44 6 1 -1 -5 -15
-13z m375 -15 c3 -5 3 -10 -2 -10 -4 -1 -29 -3 -55 -5 -56 -5 -62 0 -15 14 44
13 65 13 72 1z m-344 -64 c-23 -28 17 -68 45 -45 8 6 14 20 14 31 0 30 24 16
28 -16 2 -15 -4 -38 -13 -52 -22 -34 -96 -35 -119 -2 -24 33 -21 78 4 78 11 0
20 5 20 10 0 6 7 10 16 10 13 0 14 -3 5 -14z m309 5 c0 -6 9 -8 20 -6 17 3 20
-2 20 -28 0 -52 -24 -77 -74 -77 -59 0 -93 40 -75 88 10 27 29 29 29 3 0 -10
6 -24 14 -30 28 -23 68 17 45 45 -9 11 -8 14 5 14 9 0 16 -4 16 -9z m-501 -46
c-12 -19 -23 -35 -25 -35 -6 0 14 40 29 58 18 23 16 12 -4 -23z m364 -17 c23
-53 52 -73 108 -73 27 0 49 -4 49 -8 0 -16 -64 -70 -105 -88 -53 -24 -109 -24
-162 2 -44 21 -103 70 -103 86 0 4 19 7 43 5 50 -4 92 23 113 75 18 42 40 42
57 1z m232 -35 c-30 -26 -45 -29 -45 -9 0 8 9 18 20 21 11 3 20 15 20 25 0 26
24 31 28 6 3 -13 -6 -29 -23 -43z m-521 42 c-4 -10 3 -18 20 -25 24 -9 37 -40
17 -40 -22 0 -64 47 -58 63 4 10 11 17 16 17 6 0 8 -7 5 -15z m643 -37 c-3 -8
-6 -5 -6 6 -1 11 2 17 5 13 3 -3 4 -12 1 -19z m-920 -120 c-2 -13 -4 -5 -4 17
-1 22 1 32 4 23 2 -10 2 -28 0 -40z m863 -23 c0 -7 -63 -45 -75 -45 -5 0 8 11
30 24 47 28 45 27 45 21z m-853 -92 c-2 -16 -4 -5 -4 22 0 28 2 40 4 28 2 -13
2 -35 0 -50z m541 46 c65 -2 64 -1 29 -52 -10 -15 -17 -33 -14 -40 3 -8 -5
-14 -19 -15 -18 -1 -27 5 -35 26 -6 15 -10 28 -10 30 1 1 -8 11 -19 22 -19 19
-19 47 -1 36 4 -3 35 -6 69 -7z m-965 -49 c3 -11 1 -23 -4 -26 -5 -3 -9 6 -9
20 0 31 6 34 13 6z m87 16 c0 -3 -4 -8 -10 -11 -5 -3 -10 -1 -10 4 0 6 5 11
10 11 6 0 10 -2 10 -4z m756 -15 c23 -14 32 -27 32 -46 0 -16 7 -32 16 -37 9
-5 17 -23 17 -41 2 -29 2 -29 6 -6 3 22 10 28 39 31 l36 4 -4 -48 c-1 -26 0
-48 5 -48 4 0 7 22 7 49 0 28 5 53 10 56 6 4 10 -16 10 -52 0 -58 0 -58 -35
-69 -24 -7 -37 -8 -45 0 -7 7 -14 6 -22 -2 -22 -22 -28 -12 -30 56 l-2 67 -3
-67 c-6 -107 -23 -80 -23 35 l0 103 -32 17 c-18 8 -28 16 -23 16 6 1 24 -8 41
-18z m233 -1 c-30 -16 -36 -23 -32 -44 5 -22 7 -24 20 -10 22 22 81 44 119 44
29 0 38 -8 79 -62 25 -35 55 -78 67 -96 l20 -32 -25 9 c-16 6 -38 7 -59 0 -43
-12 -47 -11 -25 5 14 11 15 16 6 22 -8 4 -21 -3 -34 -20 l-22 -27 4 33 c2 26
1 29 -6 13 -7 -15 -10 -6 -13 40 -3 49 -5 55 -11 34 -5 -15 -31 -50 -58 -79
l-49 -52 -2 73 -2 74 -3 -72 c-6 -108 -23 -89 -23 23 0 85 -2 95 -15 84 -8 -7
-15 -10 -15 -6 0 9 91 66 104 66 6 -1 -5 -9 -25 -20z m-1029 -5 c0 -8 -7 -15
-15 -15 -8 0 -15 7 -15 15 0 8 7 15 15 15 8 0 15 -7 15 -15z m757 -26 l43 -21
0 -79 c0 -43 -3 -79 -7 -79 -13 0 -93 98 -93 114 0 8 -4 18 -10 21 -6 4 -10
-18 -11 -57 -1 -43 -3 -55 -8 -38 -7 24 -7 24 -13 3 -3 -12 -3 -25 1 -30 3 -5
-1 -1 -10 8 -12 13 -89 32 -89 22 0 -1 12 -9 28 -18 27 -15 27 -15 -18 -8 -25
3 -46 7 -48 8 -4 3 82 129 105 154 24 26 76 26 130 0z m104 -16 c13 -16 12
-17 -3 -4 -10 7 -18 15 -18 17 0 8 8 3 21 -13z m114 -192 c-6 -5 -25 10 -25
20 0 5 6 4 14 -3 8 -7 12 -15 11 -17z m-363 12 c-8 -3 -22 -19 -33 -37 -10
-17 -19 -25 -19 -17 0 8 -6 11 -15 7 -22 -8 -18 0 12 29 15 14 37 25 48 24 12
0 15 -3 7 -6z m224 -55 c4 -20 9 -26 14 -18 6 9 9 9 15 0 8 -13 -24 -40 -40
-34 -6 3 -17 20 -23 38 -7 19 -19 37 -27 40 -11 4 -12 0 -5 -20 24 -63 1 -88
-27 -29 -9 19 -21 35 -25 35 -5 0 -6 -16 -2 -35 7 -41 -6 -46 -30 -10 -20 30
-40 33 -31 5 7 -23 -12 -28 -21 -6 -10 26 14 51 63 64 26 8 59 17 73 22 31 9
56 -10 66 -52z m405 45 c33 -20 44 -39 20 -38 -17 0 -77 55 -59 55 5 0 23 -8
39 -17z m74 7 c3 -6 -1 -7 -9 -4 -18 7 -21 14 -7 14 6 0 13 -4 16 -10z m-655
-9 c0 -5 -11 -12 -25 -15 -14 -4 -24 -10 -21 -15 3 -4 -1 -8 -9 -8 -10 0 -11
5 -5 18 14 25 60 40 60 20z m444 -11 c4 -4 -1 -13 -12 -19 -11 -6 -25 -24 -30
-41 -12 -32 -48 -44 -38 -12 3 9 8 30 12 46 10 40 -10 26 -36 -25 -21 -39 -40
-51 -40 -24 0 9 -6 12 -16 8 -12 -4 -15 -2 -12 8 3 8 13 13 22 13 9 -1 16 3
16 10 0 6 7 22 16 35 15 20 22 22 63 16 25 -4 50 -10 55 -15z m88 3 c28 -25
21 -34 -12 -15 -16 9 -30 20 -30 25 0 13 23 8 42 -10z m-22 -34 c13 -23 7 -49
-11 -49 -6 0 -9 9 -6 20 7 28 -10 25 -38 -7 -30 -36 -40 -25 -21 21 12 28 21
36 40 36 15 0 30 -8 36 -21z m315 -79 c-3 -5 -12 -10 -18 -10 -7 0 -6 4 3 10
19 12 23 12 15 0z m-1153 -25 c4 -21 1 -25 -17 -25 -18 0 -22 4 -18 19 4 15
-1 20 -24 24 -21 3 -18 4 13 6 37 1 42 -2 46 -24z m211 9 c-3 -8 -10 -14 -16
-14 -7 0 -7 -4 1 -12 10 -10 106 -13 405 -14 216 -1 378 1 361 3 -24 3 -33 10
-37 29 -4 22 -1 24 34 24 22 0 39 -5 39 -10 0 -6 11 -15 25 -22 13 -6 22 -15
19 -19 -6 -10 116 -12 140 -3 9 3 16 17 16 31 0 19 3 23 13 16 7 -6 62 -9 134
-7 68 2 123 0 123 -5 0 -13 -82 -21 -153 -16 -46 4 -56 3 -37 -5 14 -5 90 -13
170 -18 102 -6 -159 -9 -869 -11 -558 0 -1012 1 -1010 4 3 2 126 5 274 6 149
1 261 5 250 10 -11 4 -14 8 -7 8 6 1 12 10 12 21 0 19 6 20 59 19 45 -2 58 -5
54 -15z m868 -4 l24 -21 -32 16 c-32 15 -42 25 -24 25 5 0 19 -9 32 -20z
m-991 0 c0 -5 -19 -9 -42 -9 l-43 2 40 7 c22 4 41 8 43 9 1 0 2 -3 2 -9z
m1417 -26 c-3 -3 -12 -4 -19 -1 -8 3 -5 6 6 6 11 1 17 -2 13 -5z m-1779 -61
c-16 -2 -40 -2 -55 0 -16 2 -3 4 27 4 30 0 43 -2 28 -4z m79 1 c-3 -3 -12 -4
-19 -1 -8 3 -5 6 6 6 11 1 17 -2 13 -5z m821 -1 c-148 -2 -388 -2 -535 0 -148
1 -27 2 267 2 294 0 415 -1 268 -2z m379 1 c-3 -3 -12 -4 -19 -1 -8 3 -5 6 6
6 11 1 17 -2 13 -5z m-802 -54 c4 -16 10 -30 14 -30 4 0 13 -27 19 -60 13 -61
37 -90 74 -90 19 0 58 -54 58 -81 0 -9 13 -35 30 -57 l30 -41 -38 -10 c-20 -5
-50 -12 -65 -15 -28 -7 -31 -10 -41 -58 -3 -15 -13 -34 -22 -43 -26 -26 -3
-37 65 -33 34 1 61 0 61 -4 0 -5 -44 -8 -97 -8 -85 0 -107 4 -160 27 l-63 27
-2 151 -3 150 -107 3 -108 3 0 99 0 100 174 0 174 0 7 -30z m1195 -340 l0
-200 -31 0 c-16 0 -28 4 -25 9 3 5 15 7 26 4 19 -5 20 0 20 191 0 108 2 196 5
196 3 0 5 -90 5 -200z m-220 172 c0 -4 -10 -13 -21 -21 -16 -10 -19 -15 -9
-21 7 -4 9 -13 5 -19 -5 -9 -10 -9 -21 0 -20 17 -17 36 8 53 24 17 38 20 38 8z
m-635 -82 c8 -69 -9 -47 -20 25 -4 34 -3 47 4 40 5 -5 13 -35 16 -65z m88 18
c-7 -54 -22 -85 -23 -47 0 38 11 89 20 89 5 0 6 -19 3 -42z m863 -3 c-5 -18
-2 -25 9 -25 8 0 15 -5 15 -11 0 -5 6 -7 13 -3 7 4 9 3 4 -2 -5 -5 -13 -10
-18 -10 -22 -3 -23 -5 -9 -14 13 -8 12 -10 -4 -10 -11 0 -16 -5 -13 -14 4 -10
-2 -13 -19 -12 -13 0 -24 4 -24 8 0 4 -7 5 -15 2 -12 -5 -15 2 -15 31 0 21 4
34 10 30 6 -3 10 -1 10 4 0 6 -4 11 -10 11 -5 0 -10 4 -10 10 0 5 7 7 15 4 8
-4 15 -1 15 5 0 6 8 11 18 10 10 0 12 -3 5 -6 -7 -2 -13 -11 -13 -20 0 -13 2
-13 15 1 8 8 15 19 15 25 0 6 3 11 6 11 3 0 3 -11 0 -25z m-1729 -7 c-3 -8 -6
-5 -6 6 -1 11 2 17 5 13 3 -3 4 -12 1 -19z m178 12 c3 -5 -1 -10 -9 -10 -9 0
-16 5 -16 10 0 6 4 10 9 10 6 0 13 -4 16 -10z m1189 -16 c11 -28 6 -39 -9 -20
-8 11 -15 23 -15 28 0 14 18 9 24 -8z m109 -37 c4 3 7 -50 7 -119 l0 -125 -31
-7 c-60 -12 -58 -15 -61 107 l-3 112 -42 3 c-70 5 -49 22 27 22 45 0 70 4 70
11 0 8 4 9 13 0 8 -6 17 -8 20 -4z m64 -254 c-2 -2 -12 -1 -21 3 -12 5 -16 20
-16 70 0 52 3 62 15 58 12 -5 15 6 17 62 1 38 4 11 5 -60 2 -71 2 -130 0 -133z
m248 217 c3 -5 -1 -10 -10 -10 -9 0 -13 5 -10 10 3 6 8 10 10 10 2 0 7 -4 10
-10z m-1551 -21 c17 -25 12 -45 -16 -60 -15 -8 -24 -7 -39 7 -18 16 -18 18 -3
36 10 10 14 18 10 18 -4 0 -4 5 -1 10 10 17 33 11 49 -11z m1033 15 c-3 -3
-12 -4 -19 -1 -8 3 -5 6 6 6 11 1 17 -2 13 -5z m-507 -33 c0 -4 -16 -7 -35 -7
-42 1 -47 13 -7 18 30 4 42 1 42 -11z m180 0 c0 -3 -16 -6 -35 -6 -19 0 -35 5
-35 10 0 7 15 9 35 7 19 -2 35 -7 35 -11z m397 -17 c-3 -3 -12 -4 -19 -1 -8 3
-5 6 6 6 11 1 17 -2 13 -5z m383 -15 c-12 -9 -10 -10 9 -5 16 3 21 2 14 -5 -6
-6 -30 -13 -54 -15 -33 -3 -39 -2 -24 5 18 9 18 10 2 10 -35 2 -5 21 31 21 29
0 34 -3 22 -11z m-450 -19 c0 -11 -4 -20 -8 -20 -4 0 -8 9 -8 20 0 11 4 20 8
20 4 0 8 -9 8 -20z m27 -12 c-3 -7 -5 -2 -5 12 0 14 2 19 5 13 2 -7 2 -19 0
-25z m38 22 c-3 -5 -11 -10 -16 -10 -6 0 -7 5 -4 10 3 6 11 10 16 10 6 0 7 -4
4 -10z m-575 -10 c11 -7 5 -9 -20 -5 l-35 5 33 -10 c17 -6 32 -13 32 -16 0 -3
-15 -3 -32 1 l-33 6 33 -15 c17 -8 32 -16 32 -18 0 -2 -21 -1 -46 1 -26 2 -42
6 -37 10 5 3 8 13 8 21 -1 8 0 18 2 23 6 10 45 9 63 -3z m170 0 c11 -7 11 -10
2 -10 -10 0 -10 -5 -2 -20 10 -19 8 -20 -32 -19 -37 0 -40 2 -20 10 13 5 28 7
33 3 5 -3 9 0 9 6 0 8 -10 9 -30 5 -40 -9 -38 2 3 15 31 10 31 10 -8 5 -29 -4
-36 -3 -25 4 19 13 51 14 70 1z m150 -5 c0 -8 -2 -15 -4 -15 -2 0 -6 7 -10 15
-3 8 -1 15 4 15 6 0 10 -7 10 -15z m-420 -20 c0 -4 -7 -19 -15 -35 -10 -20
-20 -27 -34 -23 -29 7 -34 42 -8 53 25 10 57 13 57 5z m356 -5 c8 0 14 -10 14
-25 0 -34 -33 -33 -48 0 -16 34 -15 38 4 31 9 -3 22 -6 30 -6z m695 -10 c0 -8
2 -23 4 -33 2 -10 -1 -14 -7 -11 -6 4 -8 -1 -3 -15 5 -18 2 -21 -24 -21 -30 0
-31 2 -31 44 0 26 5 46 13 49 23 9 47 3 48 -13z m-421 -20 c0 -5 -7 -10 -15
-10 -8 0 -15 5 -15 10 0 6 7 10 15 10 8 0 15 -4 15 -10z m50 0 c0 -5 -7 -10
-15 -10 -8 0 -15 5 -15 10 0 6 7 10 15 10 8 0 15 -4 15 -10z m-566 -21 c49
-38 30 -59 -53 -59 -79 0 -107 45 -43 69 42 15 67 13 96 -10z m184 1 c17 -11
32 -24 32 -30 0 -26 -126 -42 -160 -20 -19 12 -4 39 31 57 34 18 59 16 97 -7z
m-600 -23 c9 -10 4 -13 -22 -15 -24 -2 -33 2 -33 13 0 19 40 20 55 2z m-310
-24 c-10 -2 -28 -2 -40 0 -13 2 -5 4 17 4 22 1 32 -1 23 -4z"/>
<path d="M927 1772 c-19 -20 -23 -37 -7 -27 10 6 33 45 27 45 -2 0 -11 -8 -20
-18z"/>
<path d="M1410 1774 c0 -5 7 -18 15 -28 12 -16 15 -17 15 -4 0 8 -7 21 -15 28
-8 7 -15 9 -15 4z"/>
<path d="M1158 1163 c6 -2 18 -2 25 0 6 3 1 5 -13 5 -14 0 -19 -2 -12 -5z"/>
<path d="M620 660 c0 -5 5 -10 11 -10 5 0 7 5 4 10 -3 6 -8 10 -11 10 -2 0 -4
-4 -4 -10z"/>
<path d="M674 628 c-5 -8 -2 -9 11 -5 14 6 16 3 12 -13 -6 -24 8 -36 17 -14 6
17 -9 44 -25 44 -4 0 -11 -5 -15 -12z"/>
<path d="M570 592 c0 -39 -9 -45 -34 -25 -17 14 -17 13 2 -7 19 -21 24 -23 32
-10 10 16 14 70 5 70 -3 0 -5 -13 -5 -28z"/>
<path d="M656 532 c-3 -5 1 -9 9 -9 8 0 15 4 15 9 0 4 -4 8 -9 8 -6 0 -12 -4
-15 -8z"/>
<path d="M756 401 c-3 -5 3 -11 15 -14 16 -4 18 -3 8 9 -13 16 -16 17 -23 5z"/>
<path d="M750 355 c0 -8 4 -15 9 -15 5 0 11 7 15 15 3 9 0 15 -9 15 -8 0 -15
-7 -15 -15z"/>
<path d="M2050 360 c0 -11 6 -20 14 -20 24 0 28 18 6 30 -17 9 -20 8 -20 -10z"/>
<path d="M1881 214 c0 -11 3 -14 6 -6 3 7 2 16 -1 19 -3 4 -6 -2 -5 -13z"/>
<path d="M550 270 c0 -5 7 -10 16 -10 8 0 12 5 9 10 -3 6 -10 10 -16 10 -5 0
-9 -4 -9 -10z"/>
<path d="M1774 1945 c-18 -14 -18 -14 4 -8 12 3 22 1 22 -5 0 -13 -29 -24 -43
-16 -9 5 -8 3 0 -6 10 -11 17 -10 37 4 27 17 35 46 13 46 -7 0 -22 -7 -33 -15z"/>
<path d="M1364 1919 c-10 -17 23 -46 37 -32 7 7 9 19 6 27 -7 18 -33 21 -43 5z"/>
<path d="M1655 1902 c-35 -19 -51 -34 -53 -51 -6 -40 12 -45 67 -17 47 24 51
29 51 61 0 19 -3 35 -7 35 -5 0 -30 -13 -58 -28z m15 -32 c-13 -11 -30 -20
-39 -20 -10 0 -4 8 14 19 40 26 54 26 25 1z"/>
<path d="M237 1883 c-9 -9 -9 -85 1 -99 10 -16 89 -36 112 -29 23 7 34 37 25
66 -9 26 -123 78 -138 62z m48 -53 c-3 -5 1 -10 9 -10 9 0 16 -5 16 -11 0 -5
-3 -8 -7 -6 -5 2 -16 7 -26 10 -18 7 -15 27 4 27 6 0 7 -4 4 -10z m55 -24 c0
-3 -4 -8 -10 -11 -5 -3 -10 -1 -10 4 0 6 5 11 10 11 6 0 10 -2 10 -4z"/>
<path d="M780 1866 c0 -8 4 -17 9 -20 5 -4 7 3 4 14 -6 23 -13 26 -13 6z"/>
<path d="M53 1794 c-7 -20 21 -49 41 -41 24 9 1 56 -27 57 -4 0 -10 -7 -14
-16z"/>
<path d="M1542 1790 c-18 -11 -32 -22 -32 -25 0 -4 10 1 22 9 29 21 37 20 35
-3 0 -11 -4 -19 -7 -19 -18 2 -30 -3 -27 -11 1 -5 -7 -17 -18 -25 l-20 -16 20
7 c25 8 87 42 100 54 14 14 25 11 25 -9 0 -12 -19 -27 -56 -45 -76 -37 -64
-43 19 -9 63 25 67 29 67 59 0 30 -2 31 -27 23 -16 -4 -37 -11 -47 -16 -15 -6
-18 -4 -14 8 12 30 -6 38 -40 18z"/>
<path d="M1989 1751 c-58 -15 -110 -31 -117 -35 -12 -7 -17 -58 -7 -68 3 -3
23 -2 43 2 20 5 81 16 135 25 106 19 130 33 125 74 -3 22 -8 26 -38 28 -19 0
-82 -11 -141 -26z m140 -13 c0 -13 -3 -18 -5 -11 -3 7 -12 9 -20 6 -8 -3 -14
-1 -14 5 0 10 15 19 33 21 4 1 7 -9 6 -21z m-79 2 c-12 -8 -12 -10 5 -11 l20
0 -20 -9 c-11 -5 -29 -9 -40 -9 l-20 0 20 9 20 9 -20 1 c-17 2 -16 3 5 10 35
11 48 11 30 0z m-66 -40 c-5 -5 -29 -11 -53 -15 -38 -6 -43 -4 -33 8 7 8 22
14 35 13 12 -1 29 5 37 13 11 10 15 11 18 1 2 -6 0 -16 -4 -20z"/>
<path d="M520 1736 c0 -19 11 -29 53 -49 65 -33 129 -49 140 -38 23 23 -1 46
-83 78 -101 39 -110 40 -110 9z m80 -16 c30 -11 63 -20 72 -20 10 0 18 -7 18
-15 0 -16 -21 -20 -34 -7 -8 7 -13 9 -45 11 -11 0 -26 8 -35 16 -8 8 -19 15
-25 15 -6 0 -11 5 -11 10 0 13 -4 13 60 -10z"/>
<path d="M1970 1631 c-16 -4 -26 -15 -28 -30 -3 -20 0 -22 35 -19 33 3 38 6
38 27 0 27 -9 32 -45 22z m40 -20 c0 -11 -30 -19 -49 -13 -11 4 -11 6 0 13 18
11 49 11 49 0z"/>
<path d="M308 1613 c-18 -5 -26 -53 -9 -53 5 0 7 9 4 20 -4 16 0 20 22 20 24
0 27 -3 23 -25 -3 -13 -1 -22 3 -19 19 11 0 67 -20 63 -4 -1 -14 -3 -23 -6z"/>
<path d="M551 1591 c-4 -9 -8 -30 -9 -48 -2 -29 1 -32 35 -38 36 -6 38 -8 38
-43 l0 -37 58 -3 c35 -2 57 1 57 8 0 11 -17 14 -72 11 -21 -2 -38 2 -38 8 0
15 12 20 58 22 56 4 54 19 -3 19 -25 0 -45 5 -45 11 0 6 20 9 52 8 45 -3 52 0
59 20 7 16 14 21 28 16 11 -3 22 -1 26 5 4 6 3 10 -2 9 -29 -5 -65 3 -70 16
-7 20 2 29 19 19 7 -5 24 -10 38 -12 40 -5 11 15 -32 23 -31 6 -38 4 -38 -9 0
-11 -7 -14 -27 -10 -122 22 -123 22 -132 5z m49 -54 c0 -5 -4 -5 -10 -2 -5 3
-10 14 -10 23 0 15 2 15 10 2 5 -8 10 -19 10 -23z m68 5 c3 -11 -21 -12 -56
-3 -2 1 0 6 3 12 9 14 47 7 53 -9z m45 -2 c4 -15 0 -20 -14 -20 -12 0 -19 7
-19 20 0 11 6 20 14 20 7 0 16 -9 19 -20z"/>
<path d="M396 1592 c-9 -15 9 -29 47 -36 34 -6 37 -5 36 16 0 13 -3 17 -6 11
-6 -16 -63 -17 -63 -2 0 5 3 8 8 6 4 -3 16 -1 27 4 16 6 14 8 -12 8 -17 1 -34
-3 -37 -7z"/>
<path d="M1720 1581 c-70 -15 -75 -18 -78 -43 -3 -27 -1 -28 40 -29 l43 -1
-49 -8 c-26 -5 -54 -11 -62 -14 -17 -6 -19 -42 -2 -52 8 -5 6 -11 -7 -20 -22
-16 -6 -25 39 -21 16 1 31 -4 33 -10 3 -9 -6 -13 -29 -13 -18 0 -40 -5 -48
-10 -11 -7 2 -10 43 -10 51 0 59 3 66 23 5 12 6 27 4 34 -3 6 6 13 19 15 20 3
23 9 23 43 0 35 3 41 25 45 20 4 26 12 28 39 2 18 0 37 -5 41 -4 4 -42 0 -83
-9z m70 -27 c0 -16 1 -15 -55 -20 -22 -2 -50 -6 -62 -10 -13 -3 -23 -2 -23 2
1 21 17 33 50 36 78 8 90 7 90 -8z m-90 -96 c0 -4 -11 -8 -24 -8 -13 0 -31 -3
-40 -6 -10 -4 -16 -1 -16 8 0 11 12 15 40 15 22 0 40 -4 40 -9z m35 2 c-3 -5
-10 -10 -16 -10 -5 0 -9 5 -9 10 0 6 7 10 16 10 8 0 12 -4 9 -10z"/>
<path d="M1865 1570 c-8 -12 20 -24 35 -15 5 3 10 10 10 16 0 12 -37 12 -45
-1z"/>
<path d="M2184 1568 c-5 -8 -2 -9 9 -5 11 4 17 1 17 -8 0 -8 -9 -15 -20 -15
-11 0 -20 -4 -20 -9 0 -28 68 13 70 42 0 12 -48 8 -56 -5z"/>
<path d="M114 1526 c-3 -8 -4 -29 -2 -48 l3 -33 125 0 125 0 0 40 0 40 -50 7
c-94 12 -195 9 -201 -6z m152 -29 c2 -7 14 -13 25 -14 17 -2 18 1 9 13 -10 11
-8 14 12 14 31 0 41 -10 27 -27 -8 -9 -36 -13 -98 -11 -47 1 -69 3 -48 5 24 3
37 9 37 19 0 17 29 19 36 1z m-119 -23 c-3 -3 -12 -4 -19 -1 -8 3 -5 6 6 6 11
1 17 -2 13 -5z"/>
<path d="M2220 1474 c0 -9 5 -14 12 -12 18 6 21 28 4 28 -9 0 -16 -7 -16 -16z"/>
<path d="M747 1441 c-4 -17 -3 -21 5 -13 5 5 8 16 6 23 -3 8 -7 3 -11 -10z"/>
<path d="M1812 1433 c-19 -4 -23 -10 -20 -36 3 -31 4 -32 53 -32 48 0 50 1 53
29 5 42 -18 52 -86 39z m58 -33 c-8 -5 -17 -7 -21 -4 -4 2 -10 0 -14 -5 -3 -6
-12 -8 -20 -4 -27 10 -15 19 27 20 29 2 38 -1 28 -7z"/>
<path d="M2018 1402 c-25 -3 -28 -8 -28 -38 0 -30 -3 -34 -25 -34 -14 0 -25 5
-25 10 0 6 -14 10 -31 10 -26 0 -29 -3 -24 -20 6 -17 2 -20 -29 -20 -24 0 -36
5 -36 14 0 9 7 12 19 9 10 -3 22 0 25 6 9 15 -46 15 -61 0 -6 -6 -8 -19 -6
-30 4 -15 14 -19 48 -19 33 0 44 -4 48 -18 3 -15 18 -20 71 -26 37 -4 71 -4
76 -1 6 4 10 19 10 36 l0 29 90 0 90 0 0 44 0 45 -92 3 c-51 2 -105 2 -120 0z
m172 -44 c0 -19 -2 -20 -10 -8 -6 10 -10 11 -10 3 0 -8 -14 -13 -35 -13 -19 0
-35 5 -35 11 0 8 -4 8 -12 1 -17 -14 -68 -10 -68 5 0 9 22 12 75 11 41 -1 78
2 82 5 11 11 13 8 13 -15z m-175 -68 c4 -6 -12 -10 -42 -9 -43 1 -45 2 -18 9
44 11 53 11 60 0z"/>
<path d="M105 1340 c4 -6 11 -8 16 -5 14 9 11 15 -7 15 -8 0 -12 -5 -9 -10z"/>
<path d="M1642 1207 l3 -32 120 -11 c127 -12 145 -9 145 30 0 43 -10 46 -144
45 l-127 -1 3 -31z m115 -1 c3 -3 4 -8 1 -11 -7 -7 -98 6 -98 15 0 8 88 5 97
-4z m43 -1 c0 -8 -7 -15 -15 -15 -8 0 -15 7 -15 15 0 8 7 15 15 15 8 0 15 -7
15 -15z m60 -7 c0 -7 -11 -13 -25 -13 -14 0 -25 6 -25 13 0 6 11 12 25 12 14
0 25 -6 25 -12z"/>
<path d="M1950 1215 c0 -8 9 -15 20 -15 11 0 20 7 20 15 0 8 -9 15 -20 15 -11
0 -20 -7 -20 -15z"/>
<path d="M190 1071 c-36 -9 -71 -20 -78 -24 -13 -9 -16 -45 -6 -71 8 -21 24
-20 119 8 l80 23 3 42 c3 39 2 41 -25 40 -15 -1 -57 -9 -93 -18z m98 -26 c3
-10 0 -15 -7 -11 -6 4 -11 3 -11 -2 0 -16 -67 -31 -81 -18 -9 8 -10 8 -6 0 4
-7 0 -14 -8 -18 -11 -4 -15 1 -15 18 0 19 7 25 34 30 18 4 41 4 50 0 11 -4 16
-1 16 11 0 22 24 14 28 -10z m-141 -47 c-3 -7 -5 -2 -5 12 0 14 2 19 5 13 2
-7 2 -19 0 -25z"/>
<path d="M1582 1038 c3 -29 8 -34 48 -45 80 -23 343 -74 357 -69 20 8 17 72
-4 80 -21 8 -360 66 -386 66 -15 0 -18 -7 -15 -32z m132 -18 c13 -12 -4 -33
-17 -22 -7 5 -27 13 -44 17 -18 3 -33 10 -33 15 0 10 81 1 94 -10z m59 -7 c4
-3 23 -7 43 -9 44 -3 66 -20 39 -30 -10 -4 -26 -2 -36 4 -10 7 -27 12 -38 12
-28 0 -52 11 -45 21 6 11 28 12 37 2z m123 -40 c-10 -10 -19 5 -10 18 6 11 8
11 12 0 2 -7 1 -15 -2 -18z m54 1 c0 -9 -7 -14 -17 -12 -25 5 -28 28 -4 28 12
0 21 -6 21 -16z"/>
<path d="M245 940 c3 -5 8 -10 11 -10 2 0 4 5 4 10 0 6 -5 10 -11 10 -5 0 -7
-4 -4 -10z"/>
<path d="M1755 930 c3 -5 11 -10 16 -10 6 0 7 5 4 10 -3 6 -11 10 -16 10 -6 0
-7 -4 -4 -10z"/>
<path d="M60 880 c0 -5 5 -10 10 -10 6 0 10 5 10 10 0 6 -4 10 -10 10 -5 0
-10 -4 -10 -10z"/>
<path d="M168 862 c-5 -19 -11 -22 -27 -17 -12 3 -21 2 -21 -3 0 -16 39 -21
50 -6 7 7 10 21 8 31 -3 15 -5 14 -10 -5z"/>
<path d="M1805 870 c-3 -5 -1 -10 4 -10 6 0 11 5 11 10 0 6 -2 10 -4 10 -3 0
-8 -4 -11 -10z"/>
<path d="M1970 851 c0 -5 -8 -12 -17 -14 -14 -4 -12 -5 5 -6 13 -1 22 5 22 14
0 8 -2 15 -5 15 -3 0 -5 -4 -5 -9z"/>
<path d="M180 580 c0 -5 5 -10 10 -10 6 0 10 5 10 10 0 6 -4 10 -10 10 -5 0
-10 -4 -10 -10z"/>
<path d="M2047 553 c-4 -3 -7 -12 -7 -20 0 -15 26 -18 34 -4 7 11 -18 33 -27
24z"/>
<path d="M2180 539 c0 -8 3 -24 6 -37 l6 -22 26 25 c28 29 28 31 -11 40 -19 5
-27 3 -27 -6z"/>
<path d="M2138 153 c12 -2 30 -2 40 0 9 3 -1 5 -23 4 -22 0 -30 -2 -17 -4z"/>
</g>
</svg>
